<?xml version="1.0" standalone="no"?>
<!DOCTYPE svg PUBLIC "-//W3C//DTD SVG 20010904//EN"
 "http://www.w3.org/TR/2001/REC-SVG-20010904/DTD/svg10.dtd">
<svg version="1.0" xmlns="http://www.w3.org/2000/svg"
 width="512.000000pt" height="512.000000pt" viewBox="0 0 512.000000 512.000000"
 preserveAspectRatio="xMidYMid meet">
<metadata>
Created by potrace 1.14, written by Peter Selinger 2001-2017
</metadata>
<g transform="translate(0.000000,512.000000) scale(0.100000,-0.100000)"
fill="#000000" stroke="none">
<path d="M58 3963 c-30 -19 -48 -52 -48 -89 0 -15 73 -147 178 -322 97 -163
179 -301 182 -307 3 -5 12 -21 21 -35 21 -33 550 -918 566 -949 7 -13 33 -56
58 -95 25 -40 45 -79 45 -87 0 -8 -10 -30 -22 -49 -84 -138 -428 -712 -443
-739 -22 -44 -8 -100 33 -127 25 -17 63 -18 633 -19 484 0 611 3 630 13 26 14
37 30 114 159 l48 82 64 -107 c35 -59 75 -117 89 -129 l25 -23 893 0 c611 0
903 3 924 11 36 12 62 48 62 84 0 35 -18 70 -147 281 -60 99 -112 188 -116
197 -4 11 47 106 155 285 88 147 170 283 182 303 12 20 199 332 416 692 405
672 432 718 450 752 6 11 22 38 35 60 41 67 28 128 -33 158 -40 20 -1217 17
-1248 -2 -11 -8 -61 -80 -109 -160 -49 -80 -140 -231 -203 -336 -63 -104 -123
-203 -133 -220 -10 -16 -28 -46 -39 -65 -23 -41 -35 -60 -71 -115 -14 -22 -28
-45 -30 -50 -8 -22 -74 -125 -79 -125 -9 0 -95 151 -92 162 2 6 98 170 215
364 117 195 222 373 234 396 36 68 29 117 -22 148 -31 19 -49 20 -637 20
l-605 0 -26 -24 c-14 -13 -53 -71 -87 -130 -34 -58 -65 -106 -69 -106 -6 0
-21 21 -51 71 -72 124 -96 158 -120 173 -26 14 -110 16 -912 16 -805 -1 -885
-2 -910 -17z m615 -266 c27 -45 105 -176 175 -292 451 -746 493 -818 488 -839
-5 -20 -120 -220 -148 -260 -13 -17 -19 -11 -72 80 -32 55 -155 261 -273 458
-118 197 -222 372 -232 388 -9 15 -85 143 -168 283 -84 139 -153 256 -153 259
0 3 75 6 168 6 l167 0 48 -83z m2303 -927 c45 -74 48 -95 19 -130 -6 -8 -37
-58 -68 -110 -87 -147 -75 -143 -130 -50 l-48 80 87 145 c48 80 89 144 91 141
2 -2 24 -36 49 -76z m785 -1307 c18 -32 42 -70 53 -85 11 -15 17 -30 14 -33
-3 -3 -53 -4 -112 -3 l-107 3 44 70 c24 39 46 79 50 88 11 29 24 19 58 -40z"/>
</g>
</svg>
